<mxfile host="app.diagrams.net" modified="2024-01-23T00:58:41.726Z" agent="Mozilla/5.0 (X11; Ubuntu; Linux x86_64; rv:108.0) Gecko/20100101 Firefox/108.0" version="22.1.21" etag="r_pWI9G-n4hp6sjCvIEM" type="github">
  <diagram name="Page-1" id="KdEIxndFeyfMLcFIyTui">
    <mxGraphModel>
      <root>
        <mxCell id="0" />
        <mxCell id="1" parent="0" />
      </root>
    </mxGraphModel>
  </diagram>
</mxfile>
